<mxfile host="Electron" agent="Mozilla/5.0 (Windows NT 10.0; Win64; x64) AppleWebKit/537.36 (KHTML, like Gecko) draw.io/27.0.5 Chrome/134.0.6998.205 Electron/35.3.0 Safari/537.36" version="27.0.5">
  <diagram name="第 1 页" id="ibVhfnEcM5M2mcIPqq9R">
    <mxGraphModel dx="1240" dy="731" grid="1" gridSize="10" guides="1" tooltips="1" connect="1" arrows="1" fold="1" page="1" pageScale="1" pageWidth="827" pageHeight="1169" math="0" shadow="0">
      <root>
        <mxCell id="0" />
        <mxCell id="1" parent="0" />
        <mxCell id="nDwjiSjCxsFAz1H6Iqod-1" value="STM32F412" style="rounded=0;whiteSpace=wrap;html=1;" vertex="1" parent="1">
          <mxGeometry x="240" y="320" width="240" height="160" as="geometry" />
        </mxCell>
        <mxCell id="nDwjiSjCxsFAz1H6Iqod-2" value="UART0" style="text;html=1;align=center;verticalAlign=middle;whiteSpace=wrap;rounded=0;fillColor=#dae8fc;strokeColor=#6c8ebf;" vertex="1" parent="1">
          <mxGeometry x="330" y="450" width="60" height="30" as="geometry" />
        </mxCell>
        <mxCell id="nDwjiSjCxsFAz1H6Iqod-3" value="" style="shape=flexArrow;endArrow=classic;startArrow=classic;html=1;rounded=0;entryX=0.5;entryY=1;entryDx=0;entryDy=0;exitX=0.5;exitY=0;exitDx=0;exitDy=0;" edge="1" parent="1" source="nDwjiSjCxsFAz1H6Iqod-4" target="nDwjiSjCxsFAz1H6Iqod-2">
          <mxGeometry width="100" height="100" relative="1" as="geometry">
            <mxPoint x="360" y="540" as="sourcePoint" />
            <mxPoint x="490" y="440" as="targetPoint" />
          </mxGeometry>
        </mxCell>
        <mxCell id="nDwjiSjCxsFAz1H6Iqod-4" value="CH340K" style="rounded=0;whiteSpace=wrap;html=1;" vertex="1" parent="1">
          <mxGeometry x="320" y="540" width="80" height="40" as="geometry" />
        </mxCell>
        <mxCell id="nDwjiSjCxsFAz1H6Iqod-7" value="" style="endArrow=classic;startArrow=classic;html=1;rounded=0;entryX=0.5;entryY=1;entryDx=0;entryDy=0;exitX=0.5;exitY=0;exitDx=0;exitDy=0;" edge="1" parent="1" source="nDwjiSjCxsFAz1H6Iqod-9" target="nDwjiSjCxsFAz1H6Iqod-4">
          <mxGeometry width="50" height="50" relative="1" as="geometry">
            <mxPoint x="360" y="610" as="sourcePoint" />
            <mxPoint x="430" y="580" as="targetPoint" />
          </mxGeometry>
        </mxCell>
        <mxCell id="nDwjiSjCxsFAz1H6Iqod-9" value="PC" style="text;html=1;align=center;verticalAlign=middle;whiteSpace=wrap;rounded=0;fillColor=#e1d5e7;strokeColor=#9673a6;" vertex="1" parent="1">
          <mxGeometry x="330" y="610" width="60" height="20" as="geometry" />
        </mxCell>
        <mxCell id="nDwjiSjCxsFAz1H6Iqod-11" value="SPI 0" style="text;html=1;align=center;verticalAlign=middle;whiteSpace=wrap;rounded=0;fillColor=#d5e8d4;strokeColor=#82b366;" vertex="1" parent="1">
          <mxGeometry x="240" y="385" width="60" height="30" as="geometry" />
        </mxCell>
        <mxCell id="nDwjiSjCxsFAz1H6Iqod-12" value="I2C 0" style="text;html=1;align=center;verticalAlign=middle;whiteSpace=wrap;rounded=0;fillColor=#ffe6cc;strokeColor=#d79b00;" vertex="1" parent="1">
          <mxGeometry x="420" y="385" width="60" height="30" as="geometry" />
        </mxCell>
        <mxCell id="nDwjiSjCxsFAz1H6Iqod-13" value="UART1" style="text;html=1;align=center;verticalAlign=middle;whiteSpace=wrap;rounded=0;fillColor=#f8cecc;strokeColor=#b85450;" vertex="1" parent="1">
          <mxGeometry x="330" y="320" width="60" height="30" as="geometry" />
        </mxCell>
        <mxCell id="nDwjiSjCxsFAz1H6Iqod-20" value="" style="shape=flexArrow;endArrow=classic;startArrow=classic;html=1;rounded=0;exitX=1;exitY=0.5;exitDx=0;exitDy=0;entryX=0;entryY=0.5;entryDx=0;entryDy=0;" edge="1" parent="1" source="nDwjiSjCxsFAz1H6Iqod-12" target="nDwjiSjCxsFAz1H6Iqod-24">
          <mxGeometry width="100" height="100" relative="1" as="geometry">
            <mxPoint x="470" y="530" as="sourcePoint" />
            <mxPoint x="550" y="400" as="targetPoint" />
          </mxGeometry>
        </mxCell>
        <mxCell id="nDwjiSjCxsFAz1H6Iqod-21" value="" style="shape=flexArrow;endArrow=classic;startArrow=classic;html=1;rounded=0;exitX=1;exitY=0.5;exitDx=0;exitDy=0;" edge="1" parent="1" source="nDwjiSjCxsFAz1H6Iqod-25">
          <mxGeometry width="100" height="100" relative="1" as="geometry">
            <mxPoint x="170" y="399.75" as="sourcePoint" />
            <mxPoint x="240" y="399.75" as="targetPoint" />
          </mxGeometry>
        </mxCell>
        <mxCell id="nDwjiSjCxsFAz1H6Iqod-22" value="Test Module" style="text;html=1;align=center;verticalAlign=middle;whiteSpace=wrap;rounded=0;dashed=1;dashPattern=8 8;strokeColor=default;" vertex="1" parent="1">
          <mxGeometry x="312" y="230" width="96" height="30" as="geometry" />
        </mxCell>
        <mxCell id="nDwjiSjCxsFAz1H6Iqod-23" value="" style="shape=flexArrow;endArrow=classic;startArrow=classic;html=1;rounded=0;exitX=0.5;exitY=0;exitDx=0;exitDy=0;entryX=0.5;entryY=1;entryDx=0;entryDy=0;" edge="1" parent="1" source="nDwjiSjCxsFAz1H6Iqod-13" target="nDwjiSjCxsFAz1H6Iqod-22">
          <mxGeometry width="100" height="100" relative="1" as="geometry">
            <mxPoint x="360" y="370" as="sourcePoint" />
            <mxPoint x="460" y="270" as="targetPoint" />
          </mxGeometry>
        </mxCell>
        <mxCell id="nDwjiSjCxsFAz1H6Iqod-24" value="Test Module" style="text;html=1;align=center;verticalAlign=middle;whiteSpace=wrap;rounded=0;dashed=1;dashPattern=8 8;strokeColor=default;" vertex="1" parent="1">
          <mxGeometry x="550" y="385" width="96" height="30" as="geometry" />
        </mxCell>
        <mxCell id="nDwjiSjCxsFAz1H6Iqod-25" value="Test Module" style="text;html=1;align=center;verticalAlign=middle;whiteSpace=wrap;rounded=0;dashed=1;dashPattern=8 8;strokeColor=default;" vertex="1" parent="1">
          <mxGeometry x="70" y="385" width="96" height="30" as="geometry" />
        </mxCell>
      </root>
    </mxGraphModel>
  </diagram>
</mxfile>
